<?xml version="1.0" encoding="utf-8"?>
<!-- Generator: Adobe Illustrator 27.5.0, SVG Export Plug-In . SVG Version: 6.00 Build 0)  -->
<svg version="1.1" xmlns="http://www.w3.org/2000/svg" xmlns:xlink="http://www.w3.org/1999/xlink" x="0px" y="0px"
	 viewBox="0 0 500 500" style="enable-background:new 0 0 500 500;" xml:space="preserve">
<g id="Background_Simple">
	<g>
		<path style="fill:#92E3A9;" d="M442.546,153.058c0,0-66.753-79.842-170.155-98.166C168.99,36.568,148.702,114.446,114.017,160.257
			c-34.685,45.811-73.952,62.826-75.915,128.925c-1.963,66.098,24.869,100.129,76.569,123.689
			c51.701,23.56,104.71,35.994,156.411,43.193c51.701,7.199,92.93,3.272,113.218-39.266c20.288-42.539,11.125-62.172,34.685-82.46
			C442.546,314.051,495.556,221.775,442.546,153.058z"/>
		<path style="opacity:0.7;fill:#FFFFFF;" d="M442.546,153.058c0,0-66.753-79.842-170.155-98.166
			C168.99,36.568,148.702,114.446,114.017,160.257c-34.685,45.811-73.952,62.826-75.915,128.925
			c-1.963,66.098,24.869,100.129,76.569,123.689c51.701,23.56,104.71,35.994,156.411,43.193
			c51.701,7.199,92.93,3.272,113.218-39.266c20.288-42.539,11.125-62.172,34.685-82.46
			C442.546,314.051,495.556,221.775,442.546,153.058z"/>
	</g>
</g>
<g id="Emoticons_2">
	<g>
		
			<ellipse transform="matrix(0.9674 -0.2533 0.2533 0.9674 -29.364 119.9226)" style="fill:#FFFFFF;stroke:#263238;stroke-linecap:round;stroke-linejoin:round;stroke-miterlimit:10;" cx="451.054" cy="174" rx="20.714" ry="20.714"/>
		
			<polyline style="fill:none;stroke:#263238;stroke-width:2;stroke-linecap:round;stroke-linejoin:round;stroke-miterlimit:10;" points="
			445.673,157.597 450.322,162.011 441.738,159.997 		"/>
		
			<polyline style="fill:none;stroke:#263238;stroke-width:2;stroke-linecap:round;stroke-linejoin:round;stroke-miterlimit:10;" points="
			467.567,168.348 460.954,167.232 467.44,172.618 		"/>
		<g>
			<path style="fill:#263238;stroke:#263238;stroke-linecap:round;stroke-linejoin:round;stroke-miterlimit:10;" d="
				M438.736,163.183c-2.079,8.97,0.699,17.594,7.379,20.875c6.681,3.28,15.203,0.205,21.03-6.925l-2.264-1.623
				c-7.245-5.193-15.289-9.124-23.839-11.646L438.736,163.183z"/>
			<path style="fill:#92E3A9;stroke:#263238;stroke-linecap:round;stroke-linejoin:round;stroke-miterlimit:10;" d="
				M458.138,184.044c-1.651-2.829-4.538-5.496-8.273-7.33c-3.809-1.87-7.76-2.508-11.047-2.032c1.162,4.178,3.639,7.581,7.296,9.376
				C449.815,185.875,454.079,185.735,458.138,184.044z"/>
		</g>
	</g>
	<g>
		<path style="fill:#FFFFFF;stroke:#263238;stroke-linecap:round;stroke-linejoin:round;stroke-miterlimit:10;" d="M145.535,44.324
			c6.436-10.102,19.844-13.074,29.946-6.638c10.103,6.436,13.074,19.844,6.638,29.946c-6.436,10.102-19.844,13.074-29.946,6.638
			C142.07,67.834,139.098,54.426,145.535,44.324z"/>
		<path style="fill:none;stroke:#263238;stroke-width:2;stroke-linecap:round;stroke-linejoin:round;stroke-miterlimit:10;" d="
			M185.166,51.508l-0.471-1.06c-0.933-2.098-3.13-3.19-5.416-2.691l0,0"/>
		<path style="fill:none;stroke:#263238;stroke-width:2;stroke-linecap:round;stroke-linejoin:round;stroke-miterlimit:10;" d="
			M167.61,44.29l-0.813-0.828c-1.609-1.639-4.049-1.892-6.015-0.624l0,0"/>
		<g>
			<path style="fill:#263238;stroke:#263238;stroke-linecap:round;stroke-linejoin:round;stroke-miterlimit:10;" d="M159.157,47.783
				c-1.373,2.155-1.25,4.688,0.274,5.659c1.524,0.971,3.872,0.012,5.245-2.143c1.373-2.155,1.25-4.688-0.274-5.659
				C162.878,44.669,160.53,45.629,159.157,47.783z"/>
			<path style="fill:#263238;stroke:#263238;stroke-linecap:round;stroke-linejoin:round;stroke-miterlimit:10;" d="M177.467,54.581
				c-0.312,2.536,0.89,4.77,2.683,4.99c1.793,0.22,3.5-1.656,3.812-4.192c0.312-2.536-0.89-4.77-2.683-4.99
				C179.485,50.168,177.778,52.045,177.467,54.581z"/>
			<path style="fill:#263238;stroke:#263238;stroke-linecap:round;stroke-linejoin:round;stroke-miterlimit:10;" d="M165.527,60.743
				c-0.587,2.23,0.305,4.397,1.993,4.841s3.531-1.004,4.117-3.233c0.587-2.23-0.305-4.397-1.993-4.841
				C167.957,57.066,166.114,58.513,165.527,60.743z"/>
		</g>
	</g>
	<g>
		
			<ellipse transform="matrix(0.9998 -0.0217 0.0217 0.9998 -7.6967 8.1713)" style="fill:#FFFFFF;stroke:#263238;stroke-linecap:round;stroke-linejoin:round;stroke-miterlimit:10;" cx="372.579" cy="358.648" rx="21.689" ry="21.689"/>
		<path style="fill:none;stroke:#263238;stroke-width:2;stroke-linecap:round;stroke-linejoin:round;stroke-miterlimit:10;" d="
			M358.435,342.056l1.021-0.55c2.022-1.089,4.428-0.608,5.93,1.185l0,0"/>
		<path style="fill:none;stroke:#263238;stroke-width:2;stroke-linecap:round;stroke-linejoin:round;stroke-miterlimit:10;" d="
			M376.738,347.088l1.149-0.158c2.275-0.312,4.36,0.981,5.14,3.186l0,0"/>
		<g>
			<path style="fill:#263238;stroke:#263238;stroke-linecap:round;stroke-linejoin:round;stroke-miterlimit:10;" d="
				M381.286,355.023c-0.233,2.544-1.88,4.473-3.679,4.309c-1.799-0.164-3.07-2.36-2.837-4.904c0.233-2.544,1.88-4.473,3.679-4.309
				C380.248,350.284,381.519,352.479,381.286,355.023z"/>
			<path style="fill:#263238;stroke:#263238;stroke-linecap:round;stroke-linejoin:round;stroke-miterlimit:10;" d="
				M362.645,349.197c-1.305,2.196-3.622,3.229-5.176,2.305c-1.553-0.923-1.755-3.452-0.45-5.648
				c1.305-2.196,3.622-3.228,5.176-2.305C363.748,344.472,363.95,347.001,362.645,349.197z"/>
			<path style="fill:#263238;stroke:#263238;stroke-linecap:round;stroke-linejoin:round;stroke-miterlimit:10;" d="
				M368.318,361.377c-0.9,2.122-2.932,3.291-4.538,2.61c-1.606-0.681-2.179-2.954-1.279-5.077c0.9-2.122,2.932-3.291,4.538-2.61
				C368.646,356.981,369.219,359.254,368.318,361.377z"/>
		</g>
	</g>
	<g>
		
			<ellipse transform="matrix(0.9112 -0.412 0.412 0.9112 6.3041 142.5047)" style="fill:#FFFFFF;stroke:#263238;stroke-linecap:round;stroke-linejoin:round;stroke-miterlimit:10;" cx="333.67" cy="56.631" rx="30.061" ry="30.061"/>
		<path style="fill:none;stroke:#263238;stroke-width:2;stroke-linecap:round;stroke-linejoin:round;stroke-miterlimit:10;" d="
			M323.823,63.73l2.108-0.542c4.173-1.073,8.34,0.887,10.27,4.83h0"/>
		<path style="fill:#263238;stroke:#263238;stroke-linecap:round;stroke-linejoin:round;stroke-miterlimit:10;" d="M325.288,49.361
			c-0.84,2.424-3.157,3.821-5.177,3.121c-2.019-0.7-2.976-3.231-2.136-5.655c0.839-2.423,3.157-3.821,5.177-3.121
			C325.171,44.406,326.128,46.937,325.288,49.361z"/>
		<path style="fill:#263238;stroke:#263238;stroke-linecap:round;stroke-linejoin:round;stroke-miterlimit:10;" d="M352.348,58.735
			c-0.84,2.424-3.157,3.821-5.177,3.121s-2.976-3.231-2.137-5.655c0.84-2.423,3.157-3.821,5.177-3.121
			C352.231,53.779,353.187,56.311,352.348,58.735z"/>
		<path style="fill:none;stroke:#263238;stroke-width:2;stroke-linecap:round;stroke-linejoin:round;stroke-miterlimit:10;" d="
			M327.431,40.228c0,0-3.621-4.398-8.284-0.012"/>
		<path style="fill:none;stroke:#263238;stroke-width:2;stroke-linecap:round;stroke-linejoin:round;stroke-miterlimit:10;" d="
			M348.864,47.653c0,0,5.565-1.216,6.516,5.115"/>
	</g>
	<g>
		<g>
			
				<ellipse transform="matrix(0.4241 -0.9056 0.9056 0.4241 -53.4042 141.7638)" style="fill:#FFFFFF;stroke:#263238;stroke-linecap:round;stroke-linejoin:round;stroke-miterlimit:10;" cx="84.768" cy="112.874" rx="22.792" ry="22.792"/>
		</g>
		<g>
			<path style="fill:#92E3A9;stroke:#263238;stroke-linecap:round;stroke-linejoin:round;stroke-miterlimit:10;" d="M73.134,97.766
				c-2.977-2.418-7.354-1.96-9.293,0.428c-1.354,1.667-1.349,4.067-0.212,6.188c-2.309-0.677-4.659-0.189-6.013,1.477
				c-1.939,2.388-1.489,6.765,1.489,9.183c3.064,2.488,6.385,1.61,9.538,1.082c2.354-0.394,5.099-1.269,7.453-1.663
				c-0.128-3.166,0.134-6.814,0.006-9.98C75.999,101.96,75.455,99.652,73.134,97.766z"/>
		</g>
		<g>
			<path style="fill:#92E3A9;stroke:#263238;stroke-linecap:round;stroke-linejoin:round;stroke-miterlimit:10;" d="M99.039,93.53
				c-0.299-3.391-3.295-5.897-6.015-5.657c-1.898,0.168-3.425,1.654-4.074,3.689c-0.995-1.889-2.758-3.086-4.657-2.918
				c-2.72,0.24-5.23,3.232-4.931,6.623c0.308,3.49,2.92,5.063,5.204,6.745c1.706,1.257,3.96,2.465,5.666,3.721
				c1.938-2.038,4.425-4.125,6.362-6.164C98.137,97.947,99.272,96.174,99.039,93.53z"/>
		</g>
		<path style="fill:#263238;stroke:#263238;stroke-linecap:round;stroke-linejoin:round;stroke-miterlimit:10;" d="M75.716,117.878
			c0,0,7.916-5.338,19.044-6.848c0,0,4.584,10.049-6.025,13.732C78.127,128.446,75.716,117.878,75.716,117.878z"/>
		<path style="fill:#FFFFFF;stroke:#263238;stroke-linecap:round;stroke-linejoin:round;stroke-miterlimit:10;" d="M91.055,121.454
			c0.241,0.91-1.334,2.117-3.52,2.697c-2.185,0.579-4.152,0.312-4.393-0.598c-0.241-0.91,1.334-2.117,3.519-2.697
			C88.847,120.277,90.814,120.545,91.055,121.454z"/>
	</g>
</g>
<g id="Emoticons_1">
	<g>
		
			<circle style="fill:#FFFFFF;stroke:#263238;stroke-linecap:round;stroke-linejoin:round;stroke-miterlimit:10;" cx="263.239" cy="134.303" r="45.227"/>
		
			<polyline style="fill:none;stroke:#263238;stroke-width:2;stroke-linecap:round;stroke-linejoin:round;stroke-miterlimit:10;" points="
			236.906,107.332 250.267,111.508 231.503,115.823 		"/>
		
			<polyline style="fill:none;stroke:#263238;stroke-width:2;stroke-linecap:round;stroke-linejoin:round;stroke-miterlimit:10;" points="
			290.165,107.332 276.128,111.508 294.024,115.823 		"/>
		<g>
			<path style="fill:#263238;stroke:#263238;stroke-linecap:round;stroke-linejoin:round;stroke-miterlimit:10;" d="
				M228.687,124.956c4.558,19.582,18.301,33.811,34.552,33.811c16.251,0,29.994-14.229,34.552-33.811l-5.998-1.002
				c-19.197-3.206-38.746-3.167-57.931,0.116L228.687,124.956z"/>
			<path style="fill:#92E3A9;stroke:#263238;stroke-linecap:round;stroke-linejoin:round;stroke-miterlimit:10;" d="
				M286.789,147.168c-5.958-3.957-14.183-6.404-23.268-6.404c-9.265,0-17.622,2.553-23.606,6.649
				c6.298,7.071,14.429,11.355,23.324,11.355C272.239,158.767,280.461,154.39,286.789,147.168z"/>
		</g>
	</g>
	<g>
		
			<ellipse transform="matrix(0.3721 -0.9282 0.9282 0.3721 79.1387 432.7569)" style="fill:#FFFFFF;stroke:#263238;stroke-linecap:round;stroke-linejoin:round;stroke-miterlimit:10;" cx="359.433" cy="157.885" rx="46.283" ry="46.283"/>
		<path style="fill:none;stroke:#263238;stroke-width:2;stroke-linecap:round;stroke-linejoin:round;stroke-miterlimit:10;" d="
			M336.932,126.013l2.064-1.367c4.085-2.706,9.291-2.151,12.832,1.367l0,0"/>
		<path style="fill:none;stroke:#263238;stroke-width:2;stroke-linecap:round;stroke-linejoin:round;stroke-miterlimit:10;" d="
			M376.805,133.152l2.412-0.558c4.774-1.105,9.456,1.238,11.541,5.773l0,0"/>
		<g>
			<path style="fill:#263238;stroke:#263238;stroke-linecap:round;stroke-linejoin:round;stroke-miterlimit:10;" d="
				M388.011,149.132c0,5.452-3.126,9.871-6.982,9.871c-3.856,0-6.982-4.419-6.982-9.871s3.126-9.871,6.982-9.871
				C384.885,139.261,388.011,143.68,388.011,149.132z"/>
			<path style="fill:#263238;stroke:#263238;stroke-linecap:round;stroke-linejoin:round;stroke-miterlimit:10;" d="
				M347.265,140.372c-2.347,4.921-7.071,7.564-10.551,5.904c-3.48-1.66-4.4-6.994-2.053-11.915
				c2.347-4.921,7.071-7.564,10.551-5.905C348.692,130.116,349.611,135.451,347.265,140.372z"/>
			<path style="fill:#263238;stroke:#263238;stroke-linecap:round;stroke-linejoin:round;stroke-miterlimit:10;" d="
				M361.688,165.152c-1.501,4.685-5.591,7.563-9.137,6.428c-3.546-1.136-5.204-5.855-3.703-10.54c1.5-4.685,5.591-7.563,9.137-6.428
				C361.53,155.748,363.188,160.467,361.688,165.152z"/>
		</g>
	</g>
	<g>
		
			<circle style="fill:#FFFFFF;stroke:#263238;stroke-linecap:round;stroke-linejoin:round;stroke-miterlimit:10;" cx="168.475" cy="152.452" r="46.138"/>
		<path style="fill:#263238;stroke:#263238;stroke-linecap:round;stroke-linejoin:round;stroke-miterlimit:10;" d="M157.028,177.867
			c0,1.472-1.947,2.665-4.348,2.665c-2.402,0-4.348-1.193-4.348-2.665s1.947-2.665,4.348-2.665
			C155.081,175.202,157.028,176.395,157.028,177.867z"/>
		<path style="fill:#263238;stroke:#263238;stroke-linecap:round;stroke-linejoin:round;stroke-miterlimit:10;" d="M197.747,177.867
			c0,1.472-1.947,2.665-4.348,2.665c-2.401,0-4.348-1.193-4.348-2.665s1.947-2.665,4.348-2.665
			C195.8,175.202,197.747,176.395,197.747,177.867z"/>
		<path style="fill:none;stroke:#263238;stroke-width:2;stroke-linecap:round;stroke-linejoin:round;stroke-miterlimit:10;" d="
			M142.136,169.7c0,0,0.762,1.525,2.287,2.287c1.524,0.763,12.578,2.668,18.677,2.668"/>
		<path style="fill:none;stroke:#263238;stroke-width:2;stroke-linecap:round;stroke-linejoin:round;stroke-miterlimit:10;" d="
			M204.207,169.7c0,0-0.762,1.525-2.287,2.287c-1.525,0.763-12.579,2.668-18.677,2.668"/>
		<path style="fill:#263238;stroke:#263238;stroke-linecap:round;stroke-linejoin:round;stroke-miterlimit:10;" d="M162.972,187.995
			c0,0,4.286-2.256,10.542-2.421c8.201-0.216,11.263,2.628,9.994,3.073C179.341,190.106,157.105,190.602,162.972,187.995z"/>
	</g>
	<g>
		
			<ellipse transform="matrix(0.3795 -0.9252 0.9252 0.3795 -159.1306 271.2056)" style="fill:#FFFFFF;stroke:#263238;stroke-linecap:round;stroke-linejoin:round;stroke-miterlimit:10;" cx="122.619" cy="254.235" rx="45.773" ry="45.773"/>
		<path style="fill:none;stroke:#263238;stroke-width:2;stroke-linecap:round;stroke-linejoin:round;stroke-miterlimit:10;" d="
			M119.1,272.381l1.774-2.8c3.51-5.543,10.176-7.716,16.43-5.355l0,0"/>
		<path style="fill:#263238;stroke:#263238;stroke-linecap:round;stroke-linejoin:round;stroke-miterlimit:10;" d="M105.738,254.913
			c1.597,3.564,0.484,7.532-2.486,8.862c-2.97,1.33-6.672-0.48-8.269-4.044c-1.597-3.564-0.483-7.532,2.487-8.862
			C100.439,249.539,104.141,251.349,105.738,254.913z"/>
		<path style="fill:#263238;stroke:#263238;stroke-linecap:round;stroke-linejoin:round;stroke-miterlimit:10;" d="M145.532,237.085
			c1.597,3.564,0.483,7.532-2.486,8.862c-2.97,1.331-6.672-0.48-8.269-4.044c-1.597-3.564-0.483-7.532,2.487-8.862
			C140.233,231.71,143.935,233.521,145.532,237.085z"/>
		<path style="fill:none;stroke:#263238;stroke-width:2;stroke-linecap:round;stroke-linejoin:round;stroke-miterlimit:10;" d="
			M98.587,242.547c0,0-8.604-1.102-9.201,8.628"/>
		<path style="fill:none;stroke:#263238;stroke-width:2;stroke-linecap:round;stroke-linejoin:round;stroke-miterlimit:10;" d="
			M130.108,228.426c0,0,4.905-7.154,12.563-1.123"/>
	</g>
	<g>
		<g>
			
				<ellipse transform="matrix(0.9216 -0.3881 0.3881 0.9216 -71.4762 169.6539)" style="fill:#FFFFFF;stroke:#263238;stroke-linecap:round;stroke-linejoin:round;stroke-miterlimit:10;" cx="384.297" cy="261.79" rx="45.742" ry="45.742"/>
		</g>
		<g>
			<path style="fill:#92E3A9;stroke:#263238;stroke-linecap:round;stroke-linejoin:round;stroke-miterlimit:10;" d="
				M380.479,223.713c-2.512-7.276-10.456-11.135-16.292-9.12c-4.073,1.406-6.609,5.503-6.919,10.321
				c-3.217-3.601-7.74-5.26-11.813-3.854c-5.836,2.015-9.706,9.953-7.195,17.228c2.585,7.488,9.177,9.51,15.109,11.952
				c4.43,1.823,10.036,3.241,14.466,5.064c3.138-5.532,7.45-11.471,10.586-17.004C380.918,233.897,382.438,229.386,380.479,223.713z
				"/>
		</g>
		<g>
			<path style="fill:#92E3A9;stroke:#263238;stroke-linecap:round;stroke-linejoin:round;stroke-miterlimit:10;" d="M429.12,243.945
				c3.083-6.097,0.633-13.542-4.257-16.016c-3.413-1.726-7.59-0.81-10.852,1.97c0.306-4.275-1.431-8.182-4.845-9.908
				c-4.89-2.473-12.339-0.034-15.423,6.062c-3.173,6.275-0.388,11.724,1.721,17.012c1.576,3.95,4.137,8.397,5.713,12.346
				c5.464-1.419,11.913-2.342,17.376-3.763C422.903,250.518,426.716,248.699,429.12,243.945z"/>
		</g>
		<path style="fill:#263238;stroke:#263238;stroke-linecap:round;stroke-linejoin:round;stroke-miterlimit:10;" d="M363.568,260.726
			c0,0,19.148-0.709,39.714,8.51c0,0-2.837,21.985-24.821,17.02C356.476,281.293,363.568,260.726,363.568,260.726z"/>
		<path style="fill:#92E3A9;stroke:#263238;stroke-linecap:round;stroke-linejoin:round;stroke-miterlimit:10;" d="M385.919,283.077
			c-0.553,1.806-4.518,2.194-8.856,0.866c-4.338-1.328-7.407-3.869-6.854-5.675c0.553-1.806,4.518-2.194,8.856-0.866
			C383.404,278.73,386.472,281.271,385.919,283.077z"/>
	</g>
</g>
<g id="Floor_1_">
	
		<line style="fill:none;stroke:#263238;stroke-linecap:round;stroke-linejoin:round;stroke-miterlimit:10;" x1="28.94" y1="430.004" x2="454.98" y2="430.004"/>
</g>
<g id="Plant">
	<g>
		<g>
			<line style="fill:none;stroke:#263238;stroke-miterlimit:10;" x1="39.173" y1="299.987" x2="50.071" y2="404.411"/>
			<g>
				<g>
					<line style="fill:none;stroke:#263238;stroke-miterlimit:10;" x1="48.315" y1="384.427" x2="43.374" y2="379.209"/>
					<path style="fill:#92E3A9;stroke:#263238;stroke-miterlimit:10;" d="M44.875,380.773c0,0,0.141-2.308-1.966-4.191
						c-1.268-1.132-7.942-3.94-8.575-1.59C33.645,377.549,40.476,382.57,44.875,380.773z"/>
					
						<line style="fill:none;stroke:#263238;stroke-width:0.5;stroke-miterlimit:10;" x1="44.875" y1="380.773" x2="38.522" y2="376.813"/>
				</g>
				<g>
					<line style="fill:none;stroke:#263238;stroke-miterlimit:10;" x1="49.554" y1="396.303" x2="44.614" y2="391.085"/>
					<path style="fill:#92E3A9;stroke:#263238;stroke-miterlimit:10;" d="M46.115,392.649c0,0,0.141-2.308-1.966-4.191
						c-1.268-1.132-7.942-3.94-8.575-1.59C34.884,389.425,41.715,394.446,46.115,392.649z"/>
					
						<line style="fill:none;stroke:#263238;stroke-width:0.5;stroke-miterlimit:10;" x1="46.115" y1="392.649" x2="39.761" y2="388.689"/>
				</g>
				<g>
					<line style="fill:none;stroke:#263238;stroke-miterlimit:10;" x1="45.29" y1="355.448" x2="40.35" y2="350.229"/>
					<path style="fill:#92E3A9;stroke:#263238;stroke-miterlimit:10;" d="M41.851,351.793c0,0,0.141-2.308-1.966-4.191
						c-1.268-1.133-7.942-3.94-8.576-1.59C30.62,348.569,37.451,353.59,41.851,351.793z"/>
					
						<line style="fill:none;stroke:#263238;stroke-width:0.5;stroke-miterlimit:10;" x1="41.851" y1="351.793" x2="35.497" y2="347.834"/>
				</g>
				<g>
					<line style="fill:none;stroke:#263238;stroke-miterlimit:10;" x1="46.53" y1="367.324" x2="41.589" y2="362.105"/>
					<path style="fill:#92E3A9;stroke:#263238;stroke-miterlimit:10;" d="M43.09,363.669c0,0,0.141-2.308-1.966-4.191
						c-1.268-1.133-7.942-3.94-8.575-1.59C31.86,360.445,38.691,365.466,43.09,363.669z"/>
					
						<line style="fill:none;stroke:#263238;stroke-width:0.5;stroke-miterlimit:10;" x1="43.09" y1="363.669" x2="36.737" y2="359.71"/>
				</g>
				<g>
					<line style="fill:none;stroke:#263238;stroke-miterlimit:10;" x1="43.277" y1="336.156" x2="38.337" y2="330.938"/>
					<path style="fill:#92E3A9;stroke:#263238;stroke-miterlimit:10;" d="M39.838,332.501c0,0,0.141-2.308-1.966-4.191
						c-1.268-1.132-7.942-3.94-8.575-1.59C28.607,329.277,35.438,334.298,39.838,332.501z"/>
					
						<line style="fill:none;stroke:#263238;stroke-width:0.5;stroke-miterlimit:10;" x1="39.838" y1="332.501" x2="33.484" y2="328.542"/>
				</g>
				<g>
					
						<line style="fill:none;stroke:#263238;stroke-width:2;stroke-miterlimit:10;" x1="41.255" y1="316.78" x2="36.314" y2="311.562"/>
					<path style="fill:#92E3A9;stroke:#263238;stroke-miterlimit:10;" d="M37.816,313.125c0,0,0.141-2.308-1.966-4.191
						c-1.268-1.133-7.942-3.94-8.575-1.59C26.585,309.901,33.416,314.922,37.816,313.125z"/>
					
						<line style="fill:none;stroke:#263238;stroke-width:0.5;stroke-miterlimit:10;" x1="37.816" y1="313.125" x2="31.462" y2="309.166"/>
				</g>
				<g>
					
						<line style="fill:none;stroke:#263238;stroke-width:2;stroke-miterlimit:10;" x1="47.484" y1="377.401" x2="51.241" y2="371.275"/>
					<path style="fill:#92E3A9;stroke:#263238;stroke-miterlimit:10;" d="M50.095,373.115c0,0-0.615-2.229,1.059-4.506
						c1.007-1.37,6.957-5.495,8.062-3.326C60.418,367.641,54.771,373.964,50.095,373.115z"/>
					
						<line style="fill:none;stroke:#263238;stroke-width:0.5;stroke-miterlimit:10;" x1="50.095" y1="373.115" x2="55.816" y2="367.646"/>
				</g>
				<g>
					<line style="fill:none;stroke:#263238;stroke-miterlimit:10;" x1="44.223" y1="346.149" x2="47.979" y2="340.023"/>
					<path style="fill:#92E3A9;stroke:#263238;stroke-miterlimit:10;" d="M46.834,341.862c0,0-0.615-2.229,1.059-4.506
						c1.007-1.37,6.957-5.495,8.062-3.326C57.157,336.389,51.509,342.712,46.834,341.862z"/>
					
						<line style="fill:none;stroke:#263238;stroke-width:0.5;stroke-miterlimit:10;" x1="46.834" y1="341.862" x2="52.555" y2="336.394"/>
				</g>
				<g>
					<line style="fill:none;stroke:#263238;stroke-miterlimit:10;" x1="42.79" y1="332.415" x2="46.546" y2="326.289"/>
					<path style="fill:#92E3A9;stroke:#263238;stroke-miterlimit:10;" d="M45.4,328.129c0,0-0.615-2.229,1.059-4.506
						c1.007-1.37,6.957-5.495,8.062-3.326C55.723,322.655,50.076,328.978,45.4,328.129z"/>
					
						<line style="fill:none;stroke:#263238;stroke-width:0.5;stroke-miterlimit:10;" x1="45.4" y1="328.129" x2="51.121" y2="322.66"/>
				</g>
				<g>
					<line style="fill:none;stroke:#263238;stroke-miterlimit:10;" x1="40.688" y1="312.28" x2="44.445" y2="306.155"/>
					<path style="fill:#92E3A9;stroke:#263238;stroke-miterlimit:10;" d="M43.299,307.994c0,0-0.615-2.229,1.059-4.506
						c1.007-1.37,6.957-5.495,8.062-3.326C53.622,302.521,47.975,308.844,43.299,307.994z"/>
					
						<line style="fill:none;stroke:#263238;stroke-width:0.5;stroke-miterlimit:10;" x1="43.299" y1="307.994" x2="49.02" y2="302.526"/>
					<path style="fill:#92E3A9;stroke:#263238;stroke-miterlimit:10;" d="M39.082,299.407c0,0-0.615-2.229,1.059-4.506
						c1.007-1.37,6.957-5.495,8.062-3.326C49.404,293.934,43.757,300.257,39.082,299.407z"/>
					
						<line style="fill:none;stroke:#263238;stroke-width:0.5;stroke-miterlimit:10;" x1="39.082" y1="299.407" x2="44.803" y2="293.939"/>
					<path style="fill:#92E3A9;stroke:#263238;stroke-miterlimit:10;" d="M39.413,299.643c0,0-2.282,0.378-4.37-1.525
						c-1.257-1.145-4.735-7.495-2.462-8.367C35.053,288.803,40.749,295.082,39.413,299.643z"/>
					
						<line style="fill:none;stroke:#263238;stroke-width:0.5;stroke-miterlimit:10;" x1="39.413" y1="299.643" x2="34.575" y2="293.38"/>
				</g>
			</g>
		</g>
		<g>
			<line style="fill:none;stroke:#263238;stroke-miterlimit:10;" x1="67.917" y1="314.368" x2="57.081" y2="418.799"/>
			<g>
				<g>
					<line style="fill:none;stroke:#263238;stroke-miterlimit:10;" x1="59.476" y1="398.881" x2="55.716" y2="392.758"/>
					<path style="fill:#92E3A9;stroke:#263238;stroke-miterlimit:10;" d="M56.863,394.597c0,0,0.614-2.23-1.061-4.506
						c-1.008-1.369-6.961-5.491-8.064-3.321C46.537,389.13,52.188,395.449,56.863,394.597z"/>
					
						<line style="fill:none;stroke:#263238;stroke-width:0.5;stroke-miterlimit:10;" x1="56.863" y1="394.597" x2="51.461" y2="389.414"/>
				</g>
				<g>
					<line style="fill:none;stroke:#263238;stroke-miterlimit:10;" x1="62.484" y1="369.9" x2="58.723" y2="363.776"/>
					<path style="fill:#92E3A9;stroke:#263238;stroke-miterlimit:10;" d="M59.87,365.615c0,0,0.614-2.23-1.061-4.506
						c-1.008-1.369-6.96-5.491-8.064-3.321C49.544,360.148,55.195,366.468,59.87,365.615z"/>
					
						<line style="fill:none;stroke:#263238;stroke-width:0.5;stroke-miterlimit:10;" x1="59.87" y1="365.615" x2="54.468" y2="360.432"/>
				</g>
				<g>
					<line style="fill:none;stroke:#263238;stroke-miterlimit:10;" x1="61.251" y1="381.776" x2="57.491" y2="375.653"/>
					<path style="fill:#92E3A9;stroke:#263238;stroke-miterlimit:10;" d="M58.638,377.492c0,0,0.614-2.23-1.061-4.506
						c-1.008-1.369-6.961-5.491-8.064-3.321C48.312,372.025,53.963,378.345,58.638,377.492z"/>
					
						<line style="fill:none;stroke:#263238;stroke-width:0.5;stroke-miterlimit:10;" x1="58.638" y1="377.492" x2="53.236" y2="372.309"/>
				</g>
				<g>
					<line style="fill:none;stroke:#263238;stroke-miterlimit:10;" x1="64.485" y1="350.607" x2="60.725" y2="344.483"/>
					<path style="fill:#92E3A9;stroke:#263238;stroke-miterlimit:10;" d="M61.872,346.322c0,0,0.614-2.23-1.061-4.506
						c-1.008-1.369-6.961-5.491-8.064-3.321C51.546,340.855,57.197,347.175,61.872,346.322z"/>
					
						<line style="fill:none;stroke:#263238;stroke-width:0.5;stroke-miterlimit:10;" x1="61.872" y1="346.322" x2="56.47" y2="341.139"/>
				</g>
				<g>
					<line style="fill:none;stroke:#263238;stroke-miterlimit:10;" x1="66.496" y1="331.23" x2="62.736" y2="325.106"/>
					<path style="fill:#92E3A9;stroke:#263238;stroke-miterlimit:10;" d="M63.883,326.945c0,0,0.614-2.23-1.061-4.506
						c-1.008-1.369-6.961-5.491-8.064-3.321C53.557,321.478,59.208,327.798,63.883,326.945z"/>
					
						<line style="fill:none;stroke:#263238;stroke-width:0.5;stroke-miterlimit:10;" x1="63.883" y1="326.945" x2="58.481" y2="321.762"/>
				</g>
				<g>
					<line style="fill:none;stroke:#263238;stroke-miterlimit:10;" x1="60.111" y1="391.834" x2="65.048" y2="386.613"/>
					<path style="fill:#92E3A9;stroke:#263238;stroke-miterlimit:10;" d="M63.548,388.177c0,0-0.143-2.308,1.964-4.192
						c1.267-1.133,7.94-3.945,8.574-1.595C74.776,384.947,67.948,389.972,63.548,388.177z"/>
					
						<line style="fill:none;stroke:#263238;stroke-width:0.5;stroke-miterlimit:10;" x1="63.548" y1="388.177" x2="70.272" y2="384.004"/>
				</g>
				<g>
					<line style="fill:none;stroke:#263238;stroke-miterlimit:10;" x1="63.354" y1="360.58" x2="68.291" y2="355.359"/>
					<path style="fill:#92E3A9;stroke:#263238;stroke-miterlimit:10;" d="M66.791,356.923c0,0-0.143-2.308,1.964-4.192
						c1.267-1.133,7.94-3.945,8.574-1.595C78.02,353.693,71.191,358.718,66.791,356.923z"/>
					
						<line style="fill:none;stroke:#263238;stroke-width:0.5;stroke-miterlimit:10;" x1="66.791" y1="356.923" x2="73.515" y2="352.75"/>
				</g>
				<g>
					
						<line style="fill:none;stroke:#263238;stroke-width:2;stroke-miterlimit:10;" x1="64.779" y1="346.845" x2="69.716" y2="341.624"/>
					<path style="fill:#92E3A9;stroke:#263238;stroke-miterlimit:10;" d="M68.216,343.189c0,0-0.143-2.308,1.964-4.192
						c1.267-1.133,7.94-3.945,8.574-1.595C79.445,339.958,72.617,344.983,68.216,343.189z"/>
					
						<line style="fill:none;stroke:#263238;stroke-width:0.5;stroke-miterlimit:10;" x1="68.216" y1="343.189" x2="74.941" y2="339.016"/>
				</g>
				<g>
					<line style="fill:none;stroke:#263238;stroke-miterlimit:10;" x1="66.868" y1="326.71" x2="71.806" y2="321.489"/>
					<path style="fill:#92E3A9;stroke:#263238;stroke-miterlimit:10;" d="M70.305,323.053c0,0-0.143-2.308,1.964-4.192
						c1.268-1.133,7.94-3.945,8.575-1.595C81.534,319.823,74.706,324.848,70.305,323.053z"/>
					
						<line style="fill:none;stroke:#263238;stroke-width:0.5;stroke-miterlimit:10;" x1="70.305" y1="323.053" x2="77.03" y2="318.88"/>
					<path style="fill:#92E3A9;stroke:#263238;stroke-miterlimit:10;" d="M67.947,313.782c0,0-0.143-2.308,1.964-4.192
						c1.267-1.133,7.94-3.945,8.575-1.595C79.175,310.551,72.347,315.576,67.947,313.782z"/>
					
						<line style="fill:none;stroke:#263238;stroke-width:0.5;stroke-miterlimit:10;" x1="67.947" y1="313.782" x2="74.671" y2="309.609"/>
					<path style="fill:#92E3A9;stroke:#263238;stroke-miterlimit:10;" d="M68.222,314.081c0,0-2.31-0.1-3.963-2.393
						c-0.994-1.379-3.09-8.31-0.687-8.694C66.187,302.576,70.468,309.893,68.222,314.081z"/>
					
						<line style="fill:none;stroke:#263238;stroke-width:0.5;stroke-miterlimit:10;" x1="68.222" y1="314.081" x2="64.777" y2="306.956"/>
				</g>
			</g>
		</g>
		<line style="fill:none;stroke:#263238;stroke-miterlimit:10;" x1="55.499" y1="271.844" x2="55.499" y2="403.903"/>
		<g>
			<g>
				<line style="fill:none;stroke:#263238;stroke-miterlimit:10;" x1="55.604" y1="384.047" x2="51.232" y2="378.344"/>
				<path style="fill:#92E3A9;stroke:#263238;stroke-miterlimit:10;" d="M52.562,380.055c0,0,0.38-2.281-1.521-4.372
					c-1.144-1.258-7.49-4.743-8.364-2.471C41.727,375.683,48,381.385,52.562,380.055z"/>
				
					<line style="fill:none;stroke:#263238;stroke-width:0.5;stroke-miterlimit:10;" x1="52.562" y1="380.055" x2="46.654" y2="375.457"/>
			</g>
			<g>
				<line style="fill:none;stroke:#263238;stroke-miterlimit:10;" x1="55.604" y1="359.229" x2="51.232" y2="353.527"/>
				<path style="fill:#92E3A9;stroke:#263238;stroke-miterlimit:10;" d="M52.562,355.237c0,0,0.38-2.281-1.521-4.372
					c-1.144-1.258-7.49-4.743-8.364-2.471C41.727,350.865,48,356.568,52.562,355.237z"/>
				<line style="fill:none;stroke:#263238;stroke-miterlimit:10;" x1="52.562" y1="355.237" x2="46.654" y2="350.64"/>
			</g>
			<g>
				<line style="fill:none;stroke:#263238;stroke-miterlimit:10;" x1="55.604" y1="330.092" x2="51.232" y2="324.389"/>
				<path style="fill:#92E3A9;stroke:#263238;stroke-miterlimit:10;" d="M52.562,326.1c0,0,0.38-2.281-1.521-4.372
					c-1.144-1.258-7.49-4.743-8.364-2.471C41.727,321.728,48,327.431,52.562,326.1z"/>
				
					<line style="fill:none;stroke:#263238;stroke-width:0.5;stroke-miterlimit:10;" x1="52.562" y1="326.1" x2="46.654" y2="321.503"/>
			</g>
			<g>
				<line style="fill:none;stroke:#263238;stroke-miterlimit:10;" x1="55.604" y1="310.696" x2="51.232" y2="304.993"/>
				<path style="fill:#92E3A9;stroke:#263238;stroke-miterlimit:10;" d="M52.562,306.704c0,0,0.38-2.281-1.521-4.372
					c-1.144-1.258-7.49-4.743-8.364-2.471C41.727,302.332,48,308.034,52.562,306.704z"/>
				
					<line style="fill:none;stroke:#263238;stroke-width:0.5;stroke-miterlimit:10;" x1="52.562" y1="306.704" x2="46.654" y2="302.106"/>
			</g>
			<g>
				<line style="fill:none;stroke:#263238;stroke-miterlimit:10;" x1="55.604" y1="291.215" x2="51.232" y2="285.512"/>
				<path style="fill:#92E3A9;stroke:#263238;stroke-miterlimit:10;" d="M52.562,287.223c0,0,0.38-2.281-1.521-4.372
					c-1.144-1.258-7.49-4.743-8.364-2.471C41.727,282.85,48,288.553,52.562,287.223z"/>
				<line style="fill:none;stroke:#263238;stroke-miterlimit:10;" x1="52.562" y1="287.223" x2="46.654" y2="282.625"/>
			</g>
			<g>
				<line style="fill:none;stroke:#263238;stroke-miterlimit:10;" x1="55.507" y1="391.625" x2="59.879" y2="385.922"/>
				<path style="fill:#92E3A9;stroke:#263238;stroke-miterlimit:10;" d="M58.549,387.633c0,0-0.38-2.281,1.521-4.372
					c1.144-1.258,7.49-4.743,8.364-2.471C69.384,383.261,63.111,388.964,58.549,387.633z"/>
				
					<line style="fill:none;stroke:#263238;stroke-width:0.5;stroke-miterlimit:10;" x1="58.549" y1="387.633" x2="64.807" y2="382.788"/>
			</g>
			<g>
				<line style="fill:none;stroke:#263238;stroke-miterlimit:10;" x1="55.507" y1="352.155" x2="59.879" y2="346.452"/>
				<path style="fill:#92E3A9;stroke:#263238;stroke-miterlimit:10;" d="M58.549,348.163c0,0-0.38-2.281,1.521-4.372
					c1.144-1.258,7.49-4.743,8.364-2.471C69.384,343.79,63.111,349.493,58.549,348.163z"/>
				
					<line style="fill:none;stroke:#263238;stroke-width:0.5;stroke-miterlimit:10;" x1="58.549" y1="348.163" x2="64.807" y2="343.318"/>
			</g>
			<g>
				<line style="fill:none;stroke:#263238;stroke-miterlimit:10;" x1="55.507" y1="332.673" x2="59.879" y2="326.97"/>
				<path style="fill:#92E3A9;stroke:#263238;stroke-miterlimit:10;" d="M58.549,328.681c0,0-0.38-2.281,1.521-4.372
					c1.144-1.258,7.49-4.743,8.364-2.471C69.384,324.309,63.111,330.012,58.549,328.681z"/>
				
					<line style="fill:none;stroke:#263238;stroke-width:0.5;stroke-miterlimit:10;" x1="58.549" y1="328.681" x2="64.807" y2="323.836"/>
			</g>
			<g>
				<line style="fill:none;stroke:#263238;stroke-miterlimit:10;" x1="55.507" y1="306.924" x2="59.879" y2="301.221"/>
				<path style="fill:#92E3A9;stroke:#263238;stroke-miterlimit:10;" d="M58.549,302.932c0,0-0.38-2.281,1.521-4.372
					c1.144-1.258,7.49-4.743,8.364-2.471C69.384,298.56,63.111,304.263,58.549,302.932z"/>
				
					<line style="fill:none;stroke:#263238;stroke-width:0.5;stroke-miterlimit:10;" x1="58.549" y1="302.932" x2="64.807" y2="298.087"/>
			</g>
			<g>
				<line style="fill:none;stroke:#263238;stroke-miterlimit:10;" x1="55.507" y1="286.681" x2="59.879" y2="280.978"/>
				<path style="fill:#92E3A9;stroke:#263238;stroke-miterlimit:10;" d="M58.549,282.689c0,0-0.38-2.281,1.521-4.372
					c1.144-1.258,7.49-4.743,8.364-2.471C69.384,278.317,63.111,284.019,58.549,282.689z"/>
				
					<line style="fill:none;stroke:#263238;stroke-width:0.5;stroke-miterlimit:10;" x1="58.549" y1="282.689" x2="64.807" y2="277.844"/>
				<path style="fill:#92E3A9;stroke:#263238;stroke-miterlimit:10;" d="M55.245,273.71c0,0-0.38-2.281,1.521-4.372
					c1.144-1.258,7.49-4.743,8.364-2.471C66.081,269.338,59.808,275.041,55.245,273.71z"/>
				
					<line style="fill:none;stroke:#263238;stroke-width:0.5;stroke-miterlimit:10;" x1="55.245" y1="273.71" x2="61.503" y2="268.866"/>
				<path style="fill:#92E3A9;stroke:#263238;stroke-miterlimit:10;" d="M55.551,273.979c0,0-2.309,0.139-4.189-1.971
					c-1.131-1.269-3.932-7.946-1.58-8.577C52.339,262.745,57.352,269.582,55.551,273.979z"/>
				
					<line style="fill:none;stroke:#263238;stroke-width:0.5;stroke-miterlimit:10;" x1="55.551" y1="273.979" x2="51.389" y2="267.248"/>
			</g>
		</g>
		<polygon style="fill:#263238;stroke:#263238;stroke-miterlimit:10;" points="60.932,438.154 46.946,438.154 45.198,402.832 
			62.68,402.832 		"/>
	</g>
</g>
<g id="Character">
	<g>
		<path style="fill:#C9C9C9;stroke:#263238;stroke-linecap:round;stroke-linejoin:round;stroke-miterlimit:10;" d="M324.187,220.117
			c0,0-74.256-9.987-132.384,0.936l16.8,141.372l97.104,0.312l24.864-138.563C330.571,224.174,327.547,220.117,324.187,220.117z"/>
		<path style="fill:#C9C9C9;stroke:#263238;stroke-linecap:round;stroke-linejoin:round;stroke-miterlimit:10;" d="M217.339,360.865
			c0,0-17.136-135.755-20.16-140.436s-12.432-22.158-23.856-14.668c-11.424,7.49,24.864,155.728,24.864,155.728L217.339,360.865z"/>
		<path style="fill:#C9C9C9;stroke:#263238;stroke-linecap:round;stroke-linejoin:round;stroke-miterlimit:10;" d="M326.826,303.442
			c0,0,17.164-73.027,18.413-84.574c1.248-11.547-9.674-16.852-14.98-14.044c-5.305,2.809-6.554,1.872-11.859,33.08
			c-5.305,31.208-12.171,112.661-11.547,114.533c0.624,1.873,4.057,3.121,5.93,3.121
			C314.655,355.559,326.826,303.442,326.826,303.442z"/>
		<path style="fill:#C9C9C9;stroke:#263238;stroke-linecap:round;stroke-linejoin:round;stroke-miterlimit:10;" d="M196.231,358.68
			c0,0-2.809-44.315-7.802-53.99c-4.993-9.674-10.923-12.483-23.094-12.795c-12.171-0.312-19.661,9.674-17.164,16.54
			c2.497,6.866,15.604,10.299,17.788,15.292c2.185,4.993,14.98,97.057,14.98,97.057L196.231,358.68z"/>
		<path style="fill:#C9C9C9;stroke:#263238;stroke-linecap:round;stroke-linejoin:round;stroke-miterlimit:10;" d="M192.174,358.68
			c0,0-4.003-47.588-7.792-53.702c-3.788-6.113-8.287-7.888-17.521-8.086s-14.916,6.113-13.022,10.452
			c1.894,4.339,11.838,6.508,13.496,9.663c1.657,3.155,11.365,61.333,11.365,61.333L192.174,358.68z"/>
		<path style="fill:#C9C9C9;stroke:#263238;stroke-linecap:round;stroke-linejoin:round;stroke-miterlimit:10;" d="M300.923,358.68
			c0,0,2.809-44.315,7.802-53.99c4.993-9.674,10.923-12.483,23.094-12.795c12.171-0.312,19.661,9.674,17.164,16.54
			c-2.497,6.866-15.604,10.299-17.789,15.292c-2.185,4.993-14.98,97.057-14.98,97.057L300.923,358.68z"/>
		<path style="fill:#C9C9C9;stroke:#263238;stroke-linecap:round;stroke-linejoin:round;stroke-miterlimit:10;" d="M304.98,358.68
			c0,0,4.003-47.588,7.792-53.702c3.788-6.113,8.287-7.888,17.521-8.086c9.234-0.197,14.916,6.113,13.022,10.452
			c-1.894,4.339-11.838,6.508-13.496,9.663c-1.657,3.155-11.365,61.333-11.365,61.333L304.98,358.68z"/>
		<path style="fill:#263238;stroke:#263238;stroke-linecap:round;stroke-linejoin:round;stroke-miterlimit:10;" d="M292.119,341.826
			c0,0,1.507,1.741-1.395,5.058c-2.903,3.317-11.196,2.488-11.196,2.488l0.829-23.014
			C280.357,326.358,291.441,337.805,292.119,341.826z"/>
		<g>
			<path style="fill:#92E3A9;stroke:#263238;stroke-linecap:round;stroke-linejoin:round;stroke-miterlimit:10;" d="M275.882,329.95
				c0,0,9.426,5.071,10.055,7.033c0.63,1.962-0.557,10.7-1.765,14.26c-1.208,3.559-6.397,6.456-9.899,7.17
				c-3.502,0.714-7.252-0.508-10.3-6.283c-3.048-5.775-0.761-27.477,3.096-27.783C270.926,324.042,275.882,329.95,275.882,329.95z"
				/>
			<path style="fill:#FFFFFF;stroke:#263238;stroke-linecap:round;stroke-linejoin:round;stroke-miterlimit:10;" d="M266.86,234.197
				c0,0,0.762,8.3,1.994,12.605c1.233,4.305,4.073,7.573,4.073,7.573s12.365,1.441,17.739,4.118
				c5.374,2.678,5.893,3.481,7.086,8.359c1.193,4.878,9.162,49.928,6.893,54.947c-2.269,5.019-18.244-5.113-18.244-5.113
				l5.719,25.139c0,0-4.792-5.513-10.153-8.382c-5.361-2.868-37.21-19.098-55.548-22.874c-18.338-3.777-25.55-4.857-25.55-4.857
				s7.975-37.222,10.516-43.372c2.54-6.151,4.981-5.405,17.342-6.649c12.361-1.244,15.157-0.09,15.304-2.189
				c0.147-2.099-1.719-11.052-1.719-11.052S241.669,232.434,266.86,234.197z"/>
			<path style="fill:#999999;stroke:#263238;stroke-linecap:round;stroke-linejoin:round;stroke-miterlimit:10;" d="M280.404,298.24
				l21.306-9.102c-1.67-10.611-3.444-20.183-3.958-22.286c-1.193-4.878-1.712-5.681-7.086-8.359
				c-5.374-2.678-17.739-4.118-17.739-4.118s-2.84-3.267-4.073-7.573c-1.233-4.305-1.994-12.605-1.994-12.605
				c-25.191-1.763-24.55,8.254-24.55,8.254s1.866,8.952,1.719,11.052c-0.147,2.099-2.943,0.945-15.304,2.189
				c-12.361,1.244-14.802,0.498-17.342,6.649c-2.54,6.151-10.516,43.372-10.516,43.372s7.212,1.08,25.55,4.857
				c18.338,3.777,50.187,20.006,55.548,22.874c5.361,2.868,10.153,8.382,10.153,8.382l-5.72-25.14c0,0,2.133,1.351,4.948,2.822
				L280.404,298.24z"/>
			<path style="fill:#92E3A9;stroke:#263238;stroke-linecap:round;stroke-linejoin:round;stroke-miterlimit:10;" d="
				M283.136,341.389c0,0-2.166-18.37-27.922-33.981s-36.97-22.533-49.951-6.949c-12.981,15.584,12.208,44.771,24.105,52.892
				c11.897,8.12,18.422,5.317,25.851,6.029c7.429,0.712,22.737,1.208,25.659-4.916"/>
		</g>
		<path style="fill:#263238;stroke:#263238;stroke-linecap:round;stroke-linejoin:round;stroke-miterlimit:10;" d="M272.644,233.537
			c0,0,2.847,3.374,5.905,6.273c3.057,2.899,9.618,16.015,2.254,22.596c-7.365,6.58-15.18,3.156-17.958-14.681
			C260.066,229.886,271.558,232.396,272.644,233.537z"/>
		<path style="fill:#999999;stroke:#263238;stroke-linecap:round;stroke-linejoin:round;stroke-miterlimit:10;" d="M284.436,268.03
			c0,0-3.794,15.844-4.033,30.21l28.89-4.498c0,0-5.525-22.441-9.527-28.283c-4.002-5.842-13.22-8.405-14.418-7.721"/>
		<path style="fill:#FFFFFF;stroke:#263238;stroke-linecap:round;stroke-linejoin:round;stroke-miterlimit:10;" d="M258.237,266.963
			c4.802-0.438,10.803-8.157,14.223-13.17c-0.858-1.123-2.683-3.765-3.606-6.99c-1.233-4.305-1.994-12.605-1.994-12.605
			c-25.191-1.763-24.55,8.254-24.55,8.254s1.866,8.952,1.719,11.052C244.029,253.503,251.096,267.614,258.237,266.963z"/>
		<g>
			<path style="fill:#FFFFFF;stroke:#263238;stroke-linecap:round;stroke-linejoin:round;stroke-miterlimit:10;" d="
				M267.189,224.018c0,0,2.29-4.498,5.309-2.495c3.019,2.003,3.528,8.847,0.146,12.015c-3.381,3.168-5.973,3.524-5.973,3.524
				L267.189,224.018z"/>
			<path style="fill:#FFFFFF;stroke:#263238;stroke-linecap:round;stroke-linejoin:round;stroke-miterlimit:10;" d="
				M231.037,222.676c0,0-3.288-2.34-4.563,2.174c-1.275,4.513,6.992,9.695,6.992,9.695L231.037,222.676z"/>
			<path style="fill:#FFFFFF;stroke:#263238;stroke-linecap:round;stroke-linejoin:round;stroke-miterlimit:10;" d="
				M234.869,195.329c0,0-4.412,2.76-5.599,11.498c-1.187,8.739,2.696,27.229,4.555,30.811c1.859,3.582,10.302,17.214,15.96,18.569
				c5.658,1.355,9.676-1.24,12.055-5.101c2.38-3.861,4.977-8.09,6.523-13.735c1.546-5.645,2.962-25.874,0.168-35.275
				c-2.794-9.401-10.063-12.403-18.882-12.445C240.831,189.609,235.127,194.388,234.869,195.329z"/>
			<path style="fill:#263238;stroke:#263238;stroke-linecap:round;stroke-linejoin:round;stroke-miterlimit:10;" d="
				M268.531,202.096c-2.794-9.401-10.063-12.403-18.882-12.445c-8.819-0.042-14.523,4.737-14.781,5.678c0,0-4.412,2.76-5.599,11.498
				c-0.414,3.046-0.211,7.277,0.307,11.648c1.676-1.293,0.014,2.011,0.014,2.011s7.652,3.279,13.773-2.405
				c6.121-5.684,11.309-13.009,11.309-13.009s2.723,12.614,8.998,16.121c6.275,3.508,6.334,0.95,6.334,0.95l0.035,0.047
				C270.304,214.96,269.999,207.035,268.531,202.096z"/>
			<path style="fill:none;stroke:#263238;stroke-linecap:round;stroke-linejoin:round;stroke-miterlimit:10;" d="M237.962,233.325
				c0,0,2.109-2.729,5.451-1.153"/>
			<path style="fill:none;stroke:#263238;stroke-linecap:round;stroke-linejoin:round;stroke-miterlimit:10;" d="M254.384,231.598
				c0,0,2.49-2.702,6.284,0.632"/>
			<path style="fill:none;stroke:#263238;stroke-linecap:round;stroke-linejoin:round;stroke-miterlimit:10;" d="M236.21,228.217
				c0,0,3.702-3.576,7.63-2.151"/>
			<path style="fill:none;stroke:#263238;stroke-linecap:round;stroke-linejoin:round;stroke-miterlimit:10;" d="M253.054,225.944
				c0,0,3.813-2.418,7.758,1.502"/>
			<path style="fill:none;stroke:#263238;stroke-linecap:round;stroke-linejoin:round;stroke-miterlimit:10;" d="M246.846,240.659
				c0,0,0.807,2.166,2.947,1.74c2.139-0.425,2.601-1.544,2.601-1.544"/>
			<path style="fill:none;stroke:#263238;stroke-linecap:round;stroke-linejoin:round;stroke-miterlimit:10;" d="M245.149,245.719
				c0,0,7.269,3.002,11.038-1.529"/>
		</g>
		<g>
			<path style="fill:#FFFFFF;stroke:#263238;stroke-linecap:round;stroke-linejoin:round;stroke-miterlimit:10;" d="
				M306.037,312.724c0.715,1.365,1.136,2.855,1.138,4.598c0.003,2.822-0.333,6.29-1.87,8.742c-1.727,2.756-9.685,4.116-21.04-6.267
				c-11.355-10.384-28.145-28.052-28.145-28.052l-4.952-3.223c0,0-6.874-3.166-9.386-5.643c-2.511-2.477-3.332-4.452-2.448-6.117
				c0.884-1.664,5.321,3.441,7.256,3.193c1.935-0.248,2.002-1.202,1.346-2.782c-0.656-1.58-2.391-4.195-4.122-4.124
				c-1.731,0.071-4.265,0.66-5.534-0.388c-1.269-1.048,1.727-2.756,3.471-3.017c1.744-0.261,9.653,1.826,9.653,1.826
				s-0.874-1.212-1.966-2.055c-1.092-0.844-4.513-1.275-5.494-0.96c-0.981,0.315-5.019-2.269-3.399-3.498
				c1.62-1.229,4.714-1.588,6.187-0.718c1.473,0.87,9,2.931,9,2.931s-6.115-5.798-8.555-6.544c-2.441-0.746-3.031-3.281-0.55-3.107
				c2.481,0.174,6.901,2.784,9.275,4.485c2.374,1.7,6.634,6.601,6.634,6.601s-0.758-5.615,0.126-7.279
				c0.884-1.664,3.147-1.122,3.191,0.99c0.044,2.113,0.176,8.451,0.561,11.162c0.385,2.712-3.034,13.212-3.034,13.212
				s37.044,19.262,39.92,22.349C304.404,310.23,305.354,311.42,306.037,312.724z"/>
			
				<line style="fill:#FFFFFF;stroke:#263238;stroke-linecap:round;stroke-linejoin:round;stroke-miterlimit:10;" x1="262.533" y1="268.606" x2="260.703" y2="275.574"/>
			<path style="fill:#FFFFFF;stroke:#263238;stroke-linecap:round;stroke-linejoin:round;stroke-miterlimit:10;" d="M255.73,267.171
				c0,0,1.407,1.824,1.286,3.542"/>
			<path style="fill:none;stroke:#263238;stroke-linecap:round;stroke-linejoin:round;stroke-miterlimit:10;" d="M259.029,277.566
				c0,0-2.885,2.866-2.704,5.756"/>
		</g>
		<path style="fill:#92E3A9;stroke:#263238;stroke-linecap:round;stroke-linejoin:round;stroke-miterlimit:10;" d="M225.007,257.624
			l6.205,24.888c0.37,1.483,1.732,2.502,3.26,2.436l12.15-0.523c2.016-0.087,3.456-1.987,2.993-3.951l-5.885-24.998
			c-0.356-1.513-1.743-2.555-3.295-2.476l-12.47,0.633C225.943,253.736,224.517,255.659,225.007,257.624z"/>
		<g>
			<path style="fill:#FFFFFF;stroke:#263238;stroke-linecap:round;stroke-linejoin:round;stroke-miterlimit:10;" d="M221.55,289.709
				c0,0,1.412-3.737,1.174-8.548c-0.238-4.811,1.599-6.408,2.044-10.021c0.445-3.613-1.033-7.168,0.876-7.034
				c1.909,0.134,2.599,6.702,2.328,7.834c-0.271,1.132-0.006,5.561-0.006,5.561s6.66-12.958,8.143-14.964
				c1.483-2.006,3.783-4.721,4.723-4.464c0.941,0.258-0.578,5.521-1.91,8.113c-1.332,2.592-4.605,10.992-4.605,10.992
				s7.924-6.349,9.624-8.723c1.7-2.374,2.052-4.651,2.788-4.216c0.737,0.435,1.135,2.956,0.185,5.575
				c-0.95,2.618-7.521,11.555-7.521,11.555s5.828-3.811,7.08-5.258c1.252-1.447,1.714-2.565,2.655-2.307
				c0.941,0.258,0.767,2.739-0.538,4.949c0,0,0.382-0.129,1.025,1.72c0.643,1.849-2.962,6.775-8.831,11.158
				c-5.868,4.384-9.3,6.828-9.3,6.828L221.55,289.709z"/>
			
				<line style="fill:none;stroke:#263238;stroke-linecap:round;stroke-linejoin:round;stroke-miterlimit:10;" x1="248.59" y1="278.753" x2="241.145" y2="286.478"/>
		</g>
		<path style="fill:#C9C9C9;stroke:#263238;stroke-linecap:round;stroke-linejoin:round;stroke-miterlimit:10;" d="M177.652,384.271
			v54.188c0,3.51,2.846,6.356,6.356,6.356H311.42c3.51,0,6.356-2.846,6.356-6.356v-56.684H177.028L177.652,384.271z"/>
		<path style="fill:#C9C9C9;stroke:#263238;stroke-linecap:round;stroke-linejoin:round;stroke-miterlimit:10;" d="M189.965,354.62
			c0,0,61.337,0.627,88.176-0.933s44.003-2.185,45.564,5.617c1.56,7.802,1.873,24.03-0.624,28.087
			c-2.497,4.057-117.342,0.936-120.151,1.56c-2.809,0.624-24.966,2.497-28.711-3.121c-3.745-5.617-4.369-27.151,1.872-32.144
			C182.333,348.694,189.965,354.62,189.965,354.62z"/>
		<g>
			<path style="fill:#263238;stroke:#263238;stroke-linecap:round;stroke-linejoin:round;stroke-miterlimit:10;" d="
				M159.837,341.196c0,0,6.33,13.676,6.863,14.288c0.533,0.613,9.506-15.252,9.506-15.252S162.967,337.58,159.837,341.196z"/>
			<g>
				<path style="fill:#FFFFFF;stroke:#263238;stroke-linecap:round;stroke-linejoin:round;stroke-miterlimit:10;" d="
					M169.942,344.78c0,0-21.886,41.426-24.021,44.537c-2.135,3.111-35.687,16.679-35.395,20.727
					c0.292,4.048,11.218,9.607,21.63,8.802s22.785-13.172,22.785-13.172l5.01-14.033l28.54-29.645
					C188.49,361.996,175.423,345.931,169.942,344.78z"/>
				<path style="fill:#263238;stroke:#263238;stroke-linecap:round;stroke-linejoin:round;stroke-miterlimit:10;" d="
					M154.94,405.674l1.409-3.948c-10.357,8.032-24.787,11.9-24.787,11.9s-1.424-4.319-3.132-7.315
					c-1.414-2.48-4.175-4.394-5.086-4.981c-7.029,3.599-12.942,7.005-12.818,8.714c0.292,4.048,11.218,9.607,21.63,8.802
					S154.94,405.674,154.94,405.674z"/>
			</g>
			<path style="fill:#92E3A9;stroke:#263238;stroke-linecap:round;stroke-linejoin:round;stroke-miterlimit:10;" d="M231.485,298.46
				c0,0-11.04-9.403-17.08-10.785c-6.04-1.382-12.063-0.269-17.968,7.372c-5.905,7.641-9.626,16.97-9.626,16.97l-26.974,29.18
				c0,0,5.414,2.105,12.155,7.18s16.094,16.66,16.094,16.66l25.323-30.254c0,0,22.09-3.248,22.122-9.191
				c0.032-5.943-3.143-15.37-3.143-15.37"/>
			<g>
				<path style="fill:#FFFFFF;stroke:#263238;stroke-linecap:round;stroke-linejoin:round;stroke-miterlimit:10;" d="
					M229.781,394.037c0,0-0.014,38.546,0.918,41.68c0.931,3.134,14.323,17.304,14.323,17.304s9.868,9.704,3.002,11.908
					c-6.867,2.204-12.143,0.876-18.462-4.744c-6.319-5.62-9.611-10.645-9.441-15.811c0.17-5.166,0.361-5.153-0.202-8.069
					c-0.563-2.916-15.374-37.897-15.374-37.897S223.3,398.953,229.781,394.037z"/>
				<path style="fill:#263238;stroke:#263238;stroke-linecap:round;stroke-linejoin:round;stroke-miterlimit:10;" d="
					M235.536,454.274c-3.267,2.84-3.907,3.754-3.907,3.754s-6.186-5.941-11.503-12.906c0.156,4.905,3.421,9.714,9.434,15.063
					c6.319,5.62,11.595,6.948,18.462,4.744c6.867-2.204-3.002-11.908-3.002-11.908S238.803,451.434,235.536,454.274z"/>
			</g>
			<path style="fill:#92E3A9;stroke:#263238;stroke-linecap:round;stroke-linejoin:round;stroke-miterlimit:10;" d="
				M247.495,351.935c0,0-11.828-17.321-20.42-20.607c-8.592-3.286-33.619,14.523-37.109,23.292
				c-3.49,8.769,6.174,18.651,6.174,18.651l0.252,23.798c0,0,9.372,5.834,17.659,5.263c8.286-0.571,18.735-4.634,18.735-4.634
				s7.141-19.828,7.29-30.174c0.149-10.345-5.334-22.428-5.334-22.428"/>
		</g>
		<polyline style="fill:#263238;stroke:#263238;stroke-linecap:round;stroke-linejoin:round;stroke-miterlimit:10;" points="
			229.591,220.486 230.028,216.77 251.604,202.829 		"/>
	</g>
</g>
</svg>
